{"title":"Dead End 2012 BRRip x264 AC3-MiLLENiUM","uid":10561321,"size":1350645237,"categoryP":"video","categoryS":"hd___movies","magnet":"?xt=urn:btih:5fdaeae812a4009419797242b0ba39c7dbc74858&amp;dn=Dead+End+2012+BRRip+x264+AC3-MiLLENiUM&amp;tr=udp%3A%2F%2Ftracker.openbittorrent.com%3A80&amp;tr=udp%3A%2F%2Fopen.demonii.com%3A1337&amp;tr=udp%3A%2F%2Ftracker.coppersurfer.tk%3A6969&amp;tr=udp%3A%2F%2Fexodus.desync.com%3A6969","seeders":1,"leechers":1,"uploader":"lokioddin","files":4,"time":1405459580,"description":"SilverTorrent - Clean And Verified Torrents Download\n\n\n\nDead End 2012 BRRip x264 AC3-MiLLENiUM                  \n\nGeneral\n\nSource...............: 1080p.BluRay.x264-LeetHD [THANKS]\nIMDb Information.... : http://www.imdb.com/title/tt2393817/\nSample Included......: yes\n\nGeneral\nComplete name                            : Dead End 2012 BRRip x264 AC3-MiLLENiUM.mkv\nFormat                                   : Matroska\nFormat version                           : Version 2\nFile size                                : 1.24 GiB\nDuration                                 : 1h 25mn\nOverall bit rate mode                    : Variable\nOverall bit rate                         : 2 065 Kbps\nEncoded date                             : UTC 2014-07-15 13:06:05\nWriting application                      : mkvmerge v7.0.0 ('Where We Going') 32bit built on Jun  9 2014 15:08:34\nWriting library                          : libebml v1.3.0 + libmatroska v1.4.1\n\nVideo\nID                                       : 1\nFormat                                   : AVC\nFormat/Info                              : Advanced Video Codec\nFormat profile                           : &lt;a class=&quot;__cf_email__&quot; href=&quot;/cdn-cgi/l/email-protection&quot; data-cfemail=&quot;a9e1c0cec1e9e59d8798&quot;&gt;[email&amp;#160;protected]&lt;/a&gt;&lt;script cf-hash='f9e31' type=&quot;text/javascript&quot;&gt;\n/* &lt;![CDATA[ */!function(){try{var t=&quot;currentScript&quot;in document?document.currentScript:function(){for(var t=document.getElementsByTagName(&quot;script&quot;),e=t.length;e--;)if(t[e].getAttribute(&quot;cf-hash&quot;))return t[e]}();if(t&amp;&amp;t.previousSibling){var e,r,n,i,c=t.previousSibling,a=c.getAttribute(&quot;data-cfemail&quot;);if(a){for(e=&quot;&quot;,r=parseInt(a.substr(0,2),16),n=2;a.length-n;n+=2)i=parseInt(a.substr(n,2),16)^r,e+=String.fromCharCode(i);e=document.createTextNode(e),c.parentNode.replaceChild(e,c)}}}catch(u){}}();/* ]]&gt; */&lt;/script&gt;\nFormat settings, CABAC                   : Yes\nFormat settings, ReFrames                : 3 frames\nCodec ID                                 : V_MPEG4/ISO/AVC\nDuration                                 : 1h 25mn\nBit rate mode                            : Variable\nBit rate                                 : 1 576 Kbps\nMaximum bit rate                         : 40.0 Mbps\nWidth                                    : 720 pixels\nHeight                                   : 304 pixels\nDisplay aspect ratio                     : 2.35:1\nFrame rate mode                          : Constant\nFrame rate                               : 23.976 fps\nColor space                              : YUV\nChroma subsampling                       : 4:2:0\nBit depth                                : 8 bits\nScan type                                : Progressive\nBits/(Pixel*Frame)                       : 0.300\nStream size                              : 968 MiB (76%)\nWriting library                          : x264 core 142 r2431 ac76440\n\nAudio\nID                                       : 2\nFormat                                   : AC-3\nFormat/Info                              : Audio Coding 3\nMode extension                           : CM (complete main)\nFormat settings, Endianness              : Big\nCodec ID                                 : A_AC3\nDuration                                 : 1h 25mn\nBit rate mode                            : Constant\nBit rate                                 : 448 Kbps\nChannel(s)                               : 6 channels\nChannel positions                        : Front: L C R, Side: L R, LFE\nSampling rate                            : 48.0 KHz\nBit depth                                : 16 bits\nCompression mode                         : Lossy\nStream size                              : 275 MiB (22%)\nLanguage                                 : English\nDefault                                  : Yes\nForced                                   : No\n &lt;a href=&quot;\nhttp://s1.postimg.org/6yhnvsmzj/vlcsnap_2014_07_15_21h02m21s71.jpg&quot; rel=&quot;nofollow&quot; target=&quot;_NEW&quot;&gt;\nhttp://s1.postimg.org/6yhnvsmzj/vlcsnap_2014_07_15_21h02m21s71.jpg&lt;/a&gt;\n &lt;a href=&quot;\nhttp://s1.postimg.org/m8hj2zihr/vlcsnap_2014_07_15_21h02m54s138.jpg&quot; rel=&quot;nofollow&quot; target=&quot;_NEW&quot;&gt;\nhttp://s1.postimg.org/m8hj2zihr/vlcsnap_2014_07_15_21h02m54s138.jpg&lt;/a&gt;\n &lt;a href=&quot;\nhttp://s1.postimg.org/4wh6hjp0f/vlcsnap_2014_07_15_21h03m24s200.jpg&quot; rel=&quot;nofollow&quot; target=&quot;_NEW&quot;&gt;\nhttp://s1.postimg.org/4wh6hjp0f/vlcsnap_2014_07_15_21h03m24s200.jpg&lt;/a&gt;\n &lt;a href=&quot;\nhttp://s1.postimg.org/9ejh9n527/vlcsnap_2014_07_15_21h03m43s117.jpg&quot; rel=&quot;nofollow&quot; target=&quot;_NEW&quot;&gt;\nhttp://s1.postimg.org/9ejh9n527/vlcsnap_2014_07_15_21h03m43s117.jpg&lt;/a&gt;\n\n\nSilverTorrent - Clean And Verified Torrents Download\n\n\n","torrent":{"xt":"urn:btih:5fdaeae812a4009419797242b0ba39c7dbc74858","amp;dn":"Dead+End+2012+BRRip+x264+AC3-MiLLENiUM","amp;tr":["udp%3A%2F%2Ftracker.openbittorrent.com%3A80","udp%3A%2F%2Fopen.demonii.com%3A1337","udp%3A%2F%2Ftracker.coppersurfer.tk%3A6969","udp%3A%2F%2Fexodus.desync.com%3A6969"],"infoHash":"5fdaeae812a4009419797242b0ba39c7dbc74858","infoHashBuffer":{"type":"Buffer","data":[95,218,234,232,18,164,0,148,25,121,114,66,176,186,57,199,219,199,72,88]},"announce":[],"urlList":[]}}